<?xml version="1.0" standalone="no"?>
<!DOCTYPE svg PUBLIC "-//W3C//DTD SVG 20010904//EN"
 "http://www.w3.org/TR/2001/REC-SVG-20010904/DTD/svg10.dtd">
<svg version="1.0" xmlns="http://www.w3.org/2000/svg"
 width="200.000000pt" height="182.000000pt" viewBox="0 0 200.000000 182.000000"
 preserveAspectRatio="xMidYMid meet">

<g transform="translate(0.000000,182.000000) scale(0.100000,-0.100000)"
fill="#000000" stroke="none">
<path d="M626 1714 c-341 -67 -573 -407 -528 -772 8 -65 17 -101 28 -109 9 -6
38 -95 69 -215 29 -111 61 -223 69 -247 21 -57 67 -136 109 -185 30 -36 36
-38 62 -29 26 8 32 6 53 -18 13 -16 40 -33 60 -39 62 -19 294 -24 468 -10 128
10 167 10 179 0 19 -16 233 6 256 26 8 8 21 14 27 14 31 0 112 23 112 32 0 6
-7 7 -17 3 -10 -4 -92 -9 -183 -10 -121 -2 -174 -7 -200 -18 -46 -20 -253 -37
-443 -37 -212 1 -257 14 -257 78 0 20 2 22 15 12 19 -16 87 -4 120 22 20 16
25 28 25 64 0 86 -135 432 -184 473 -34 29 -146 -24 -146 -69 0 -23 -25 -33
-40 -15 -7 8 -16 12 -21 9 -5 -3 -9 1 -10 8 0 7 -4 4 -8 -7 -8 -19 -8 -19 -20
4 -22 40 -60 161 -55 174 2 7 6 77 8 157 4 162 16 212 74 323 67 130 220 247
360 276 80 17 268 14 333 -5 152 -45 280 -148 344 -277 54 -110 66 -165 71
-325 2 -79 6 -148 9 -152 7 -11 -54 -180 -65 -180 -5 0 -10 5 -12 11 -2 6 -14
2 -29 -10 -29 -22 -43 -17 -52 19 -14 53 -110 89 -146 56 -49 -45 -169 -350
-178 -456 -5 -54 -4 -58 24 -78 43 -31 99 -38 123 -17 19 17 20 17 29 -8 6
-16 21 -29 37 -33 23 -6 33 -1 66 35 37 39 42 41 96 41 98 0 275 -20 304 -35
32 -15 39 -1 8 15 -22 12 -135 27 -272 36 -49 3 -88 10 -88 15 0 5 8 17 19 28
16 16 43 19 282 24 279 7 363 16 388 43 15 15 14 15 -4 6 -34 -17 -190 -31
-422 -38 -198 -6 -223 -5 -223 8 0 24 40 29 180 22 135 -7 163 -4 154 19 -6
16 -74 16 -228 2 -83 -8 -88 -7 -84 11 2 13 16 21 48 27 66 12 433 0 510 -17
68 -14 91 -13 48 3 -49 18 -208 31 -395 31 -106 0 -193 3 -193 7 0 3 21 90 46
192 32 129 51 191 64 201 25 20 45 168 36 262 -42 425 -404 703 -810 622z"/>
<path d="M350 886 c0 -2 8 -10 18 -17 15 -13 16 -12 3 4 -13 16 -21 21 -21 13z"/>
<path d="M1159 873 c-13 -16 -12 -17 4 -4 16 13 21 21 13 21 -2 0 -10 -8 -17
-17z"/>
<path d="M259 713 c-13 -16 -12 -17 4 -4 9 7 17 15 17 17 0 8 -8 3 -21 -13z"/>
<path d="M1250 726 c0 -2 8 -10 18 -17 15 -13 16 -12 3 4 -13 16 -21 21 -21
13z"/>
</g>
</svg>
